<svg xmlns="http://www.w3.org/2000/svg" xmlns:xlink="http://www.w3.org/1999/xlink" width="500" zoomAndPan="magnify" viewBox="0 0 375 374.999991" height="500" preserveAspectRatio="xMidYMid meet" version="1.0"><defs><clipPath id="675df63fd2"><path d="M 78.667969 156.675781 L 100.988281 156.675781 L 100.988281 178.996094 L 78.667969 178.996094 Z M 78.667969 156.675781 " clip-rule="nonzero"/></clipPath><clipPath id="b9cf8653e2"><path d="M 80.113281 223.648438 L 102.4375 223.648438 L 102.4375 245.972656 L 80.113281 245.972656 Z M 80.113281 223.648438 " clip-rule="nonzero"/></clipPath><clipPath id="ba1e37556f"><path d="M 124.621094 134.273438 L 269.59375 134.273438 L 269.59375 262.96875 L 124.621094 262.96875 Z M 124.621094 134.273438 " clip-rule="nonzero"/></clipPath><clipPath id="a0c158b9b0"><path d="M 242.339844 134.308594 L 242.339844 149.585938 L 231.378906 149.585938 L 231.363281 134.351562 L 231.363281 199.273438 C 231.363281 199.972656 231.351562 200.65625 231.324219 201.320312 C 230.679688 219.640625 221.21875 227.441406 207.511719 227.441406 C 193.804688 227.441406 184.34375 219.644531 183.703125 201.320312 L 190.289062 201.320312 L 190.289062 178.996094 L 145.640625 178.996094 L 145.640625 156.675781 L 167.964844 156.675781 L 167.964844 134.347656 L 183.65625 134.308594 L 145.597656 134.308594 L 145.597656 199.273438 C 145.597656 199.960938 145.601562 200.644531 145.613281 201.320312 L 124.761719 201.320312 L 124.761719 223.640625 L 148.910156 223.640625 C 148.910156 223.640625 148.910156 223.640625 148.910156 223.648438 C 156.832031 249.8125 178.414062 262.964844 207.511719 262.964844 C 244.558594 262.964844 269.425781 241.394531 269.425781 199.273438 L 269.425781 134.308594 Z M 242.339844 134.308594 " clip-rule="nonzero"/></clipPath><clipPath id="369d07ac18"><path d="M 100.992188 112.027344 L 123.3125 112.027344 L 123.3125 134.347656 L 100.992188 134.347656 Z M 100.992188 112.027344 " clip-rule="nonzero"/></clipPath><clipPath id="8b9b8836c4"><path d="M 145.640625 112.027344 L 167.964844 112.027344 L 167.964844 134.347656 L 145.640625 134.347656 Z M 145.640625 112.027344 " clip-rule="nonzero"/></clipPath><clipPath id="d5dc9f1f85"><path d="M 145.640625 178.996094 L 167.964844 178.996094 L 167.964844 201.320312 L 145.640625 201.320312 Z M 145.640625 178.996094 " clip-rule="nonzero"/></clipPath><clipPath id="43a7cab0cc"><path d="M 231.367188 179.003906 L 253.507812 179.003906 L 253.507812 201.324219 L 231.367188 201.324219 Z M 231.367188 179.003906 " clip-rule="nonzero"/></clipPath><clipPath id="fe28ca0904"><path d="M 145.640625 156.675781 L 190.285156 156.675781 L 190.285156 178.996094 L 145.640625 178.996094 Z M 145.640625 156.675781 " clip-rule="nonzero"/></clipPath><clipPath id="78aa92041a"><path d="M 167.964844 112.027344 L 190.285156 112.027344 L 190.285156 134.347656 L 167.964844 134.347656 Z M 167.964844 112.027344 " clip-rule="nonzero"/></clipPath><clipPath id="c56903070f"><path d="M 123.238281 134.273438 L 145.921875 134.273438 L 145.921875 156.960938 L 123.238281 156.960938 Z M 123.238281 134.273438 " clip-rule="nonzero"/></clipPath><clipPath id="e29a29215e"><path d="M 145.640625 156.675781 L 123.3125 156.675781 L 123.3125 134.347656 L 145.636719 134.347656 Z M 145.640625 156.675781 " clip-rule="nonzero"/></clipPath><clipPath id="d747426a4a"><path d="M 220.015625 134.347656 L 231.378906 134.347656 L 231.378906 149.585938 L 220.015625 149.585938 Z M 220.015625 134.347656 " clip-rule="nonzero"/></clipPath><clipPath id="1eb4ddfa4c"><path d="M 209.058594 134.347656 L 231.378906 134.347656 L 231.378906 156.675781 L 209.058594 156.675781 Z M 209.058594 134.347656 " clip-rule="nonzero"/></clipPath><clipPath id="0abc9b7d5e"><path d="M 278.820312 119.21875 L 285.386719 119.21875 L 285.386719 121.15625 L 278.820312 121.15625 Z M 281.023438 121.15625 L 283.203125 121.15625 L 283.203125 127.152344 L 281.023438 127.152344 Z M 281.023438 121.15625 " clip-rule="nonzero"/></clipPath><clipPath id="35fb36c33b"><path d="M 286.484375 119.199219 L 296.332031 119.199219 L 296.332031 127.171875 L 286.484375 127.171875 Z M 286.484375 119.199219 " clip-rule="nonzero"/></clipPath><clipPath id="cc4743d025"><path d="M 293.023438 119.21875 L 291.386719 124.035156 L 291.363281 124.035156 L 289.722656 119.21875 L 286.488281 119.21875 L 286.488281 127.152344 L 288.59375 127.152344 L 288.59375 121.96875 L 288.613281 121.96875 L 290.417969 127.152344 L 292.253906 127.152344 L 294.132812 121.761719 L 294.15625 121.761719 L 294.15625 127.152344 L 296.332031 127.152344 L 296.332031 119.21875 Z M 293.023438 119.21875 " clip-rule="nonzero"/></clipPath></defs><g clip-path="url(#675df63fd2)"><path fill="#ffffff" d="M 78.667969 156.675781 L 100.992188 156.675781 L 100.992188 179 L 78.667969 179 Z M 78.667969 156.675781 " fill-opacity="1" fill-rule="nonzero"/></g><g clip-path="url(#b9cf8653e2)"><path fill="#00f0ff" d="M 80.113281 223.648438 L 102.4375 223.648438 L 102.4375 245.972656 L 80.113281 245.972656 Z M 80.113281 223.648438 " fill-opacity="1" fill-rule="nonzero"/></g><g clip-path="url(#ba1e37556f)"><g clip-path="url(#a0c158b9b0)"><path fill="#ffffff" d="M 98.808594 109.84375 L 271.566406 109.84375 L 271.566406 265.148438 L 98.808594 265.148438 Z M 98.808594 109.84375 " fill-opacity="1" fill-rule="nonzero"/></g></g><g clip-path="url(#369d07ac18)"><path fill="#00f0ff" d="M 98.808594 109.84375 L 271.566406 109.84375 L 271.566406 265.148438 L 98.808594 265.148438 Z M 98.808594 109.84375 " fill-opacity="1" fill-rule="nonzero"/></g><g clip-path="url(#8b9b8836c4)"><path fill="#00f0ff" d="M 98.808594 109.84375 L 271.566406 109.84375 L 271.566406 265.148438 L 98.808594 265.148438 Z M 98.808594 109.84375 " fill-opacity="1" fill-rule="nonzero"/></g><g clip-path="url(#d5dc9f1f85)"><path fill="#01a3f8" d="M 98.808594 109.84375 L 271.566406 109.84375 L 271.566406 265.148438 L 98.808594 265.148438 Z M 98.808594 109.84375 " fill-opacity="1" fill-rule="nonzero"/></g><g clip-path="url(#43a7cab0cc)"><path fill="#00f0ff" d="M 98.808594 109.84375 L 271.566406 109.84375 L 271.566406 265.148438 L 98.808594 265.148438 Z M 98.808594 109.84375 " fill-opacity="1" fill-rule="nonzero"/></g><g clip-path="url(#fe28ca0904)"><path fill="#00f0ff" d="M 98.808594 109.84375 L 271.566406 109.84375 L 271.566406 265.148438 L 98.808594 265.148438 Z M 98.808594 109.84375 " fill-opacity="1" fill-rule="nonzero"/></g><g clip-path="url(#78aa92041a)"><path fill="#01a3f8" d="M 98.808594 109.84375 L 271.566406 109.84375 L 271.566406 265.148438 L 98.808594 265.148438 Z M 98.808594 109.84375 " fill-opacity="1" fill-rule="nonzero"/></g><g clip-path="url(#c56903070f)"><g clip-path="url(#e29a29215e)"><path fill="#00f0ff" d="M 98.808594 109.84375 L 271.566406 109.84375 L 271.566406 265.148438 L 98.808594 265.148438 Z M 98.808594 109.84375 " fill-opacity="1" fill-rule="nonzero"/></g></g><g clip-path="url(#d747426a4a)"><path fill="#1450ef" d="M 98.808594 109.84375 L 271.566406 109.84375 L 271.566406 265.148438 L 98.808594 265.148438 Z M 98.808594 109.84375 " fill-opacity="1" fill-rule="nonzero"/></g><g clip-path="url(#1eb4ddfa4c)"><path fill="#00f0ff" d="M 98.808594 109.84375 L 271.566406 109.84375 L 271.566406 265.148438 L 98.808594 265.148438 Z M 98.808594 109.84375 " fill-opacity="1" fill-rule="nonzero"/></g><g clip-path="url(#0abc9b7d5e)"><path fill="#ffffff" d="M 276.636719 117.035156 L 298.496094 117.035156 L 298.496094 129.335938 L 276.636719 129.335938 Z M 276.636719 117.035156 " fill-opacity="1" fill-rule="nonzero"/></g><g clip-path="url(#35fb36c33b)"><g clip-path="url(#cc4743d025)"><path fill="#ffffff" d="M 276.636719 117.035156 L 298.496094 117.035156 L 298.496094 129.335938 L 276.636719 129.335938 Z M 276.636719 117.035156 " fill-opacity="1" fill-rule="nonzero"/></g></g></svg>