<svg xmlns="http://www.w3.org/2000/svg" xmlns:xlink="http://www.w3.org/1999/xlink" width="1000" zoomAndPan="magnify" viewBox="0 0 750 142.499996" height="190" preserveAspectRatio="xMidYMid meet" version="1.0"><defs><clipPath id="a9674e4ee8"><path d="M 17.578125 59.351562 L 34.277344 59.351562 L 34.277344 76.058594 L 17.578125 76.058594 Z M 17.578125 59.351562 " clip-rule="nonzero"/></clipPath><clipPath id="6e8aab7704"><path d="M 18.660156 109.460938 L 35.359375 109.460938 L 35.359375 126.160156 L 18.660156 126.160156 Z M 18.660156 109.460938 " clip-rule="nonzero"/></clipPath><clipPath id="b7a6cac382"><path d="M 67.285156 42.527344 L 160.664062 42.527344 L 160.664062 139 L 67.285156 139 Z M 67.285156 42.527344 " clip-rule="nonzero"/></clipPath><clipPath id="100fe10514"><path d="M 140.039062 54.042969 L 131.835938 54.042969 L 131.832031 42.652344 L 131.832031 91.226562 C 131.832031 91.742188 131.824219 92.253906 131.800781 92.753906 C 131.320312 106.457031 124.238281 112.296875 113.976562 112.296875 C 103.726562 112.296875 96.652344 106.464844 96.167969 92.753906 L 96.136719 91.226562 L 96.136719 59.359375 L 84.390625 59.359375 L 84.390625 42.652344 L 96.136719 42.652344 L 96.136719 42.617188 L 67.652344 42.617188 L 67.652344 91.226562 C 67.652344 91.742188 67.652344 92.246094 67.65625 92.753906 C 67.78125 98.9375 68.632812 104.507812 70.125 109.457031 C 76.054688 129.035156 92.203125 138.878906 113.972656 138.878906 C 141.699219 138.878906 160.304688 122.738281 160.304688 91.226562 L 160.304688 42.617188 L 140.039062 42.617188 Z M 140.039062 54.042969 " clip-rule="nonzero"/></clipPath><clipPath id="376f1e3617"><path d="M 34.28125 25.945312 L 50.980469 25.945312 L 50.980469 42.652344 L 34.28125 42.652344 Z M 34.28125 25.945312 " clip-rule="nonzero"/></clipPath><clipPath id="45976f6374"><path d="M 67.6875 25.945312 L 84.390625 25.945312 L 84.390625 42.652344 L 67.6875 42.652344 Z M 67.6875 25.945312 " clip-rule="nonzero"/></clipPath><clipPath id="30a53f6264"><path d="M 67.6875 59.351562 L 84.390625 59.351562 L 84.390625 76.058594 L 67.6875 76.058594 Z M 67.6875 59.351562 " clip-rule="nonzero"/></clipPath><clipPath id="c4bb2d359c"><path d="M 67.6875 76.058594 L 84.390625 76.058594 L 84.390625 92.753906 L 67.6875 92.753906 Z M 67.6875 76.058594 " clip-rule="nonzero"/></clipPath><clipPath id="8f51f71b11"><path d="M 131.691406 76.058594 L 148.394531 76.058594 L 148.394531 92.753906 L 131.691406 92.753906 Z M 131.691406 76.058594 " clip-rule="nonzero"/></clipPath><clipPath id="648600f174"><path d="M 84.390625 59.359375 L 101.101562 59.359375 L 101.101562 76.058594 L 84.390625 76.058594 Z M 84.390625 59.359375 " clip-rule="nonzero"/></clipPath><clipPath id="ea0dc390d9"><path d="M 84.390625 25.945312 L 101.101562 25.945312 L 101.101562 42.652344 L 84.390625 42.652344 Z M 84.390625 25.945312 " clip-rule="nonzero"/></clipPath><clipPath id="26db7140ec"><path d="M 84.390625 76.058594 L 101.09375 76.058594 L 101.09375 92.753906 L 84.390625 92.753906 Z M 84.390625 76.058594 " clip-rule="nonzero"/></clipPath><clipPath id="efe4f75af9"><path d="M 50.988281 42.652344 L 67.6875 42.652344 L 67.6875 59.351562 L 50.988281 59.351562 Z M 50.988281 42.652344 " clip-rule="nonzero"/></clipPath><clipPath id="664ac59d7c"><path d="M 123.332031 42.652344 L 131.835938 42.652344 L 131.835938 54.042969 L 123.332031 54.042969 Z M 123.332031 42.652344 " clip-rule="nonzero"/></clipPath><clipPath id="af508ba5b7"><path d="M 115.019531 42.527344 L 132 42.527344 L 132 59.417969 L 115.019531 59.417969 Z M 115.019531 42.527344 " clip-rule="nonzero"/></clipPath><clipPath id="9bbc51adac"><path d="M 131.835938 59.359375 L 115.140625 59.359375 L 115.140625 42.652344 L 131.84375 42.652344 Z M 131.835938 59.359375 " clip-rule="nonzero"/></clipPath><clipPath id="e27fe8fc08"><path d="M 52.066406 92.753906 L 70.277344 92.753906 L 70.277344 109.464844 L 52.066406 109.464844 Z M 52.066406 92.753906 " clip-rule="nonzero"/></clipPath><clipPath id="25483c3414"><path d="M 175.121094 40.152344 L 267.773438 40.152344 L 267.773438 136.421875 L 175.121094 136.421875 Z M 175.121094 40.152344 " clip-rule="nonzero"/></clipPath><clipPath id="e83900746e"><path d="M 221.449219 40.152344 C 193.726562 40.152344 175.121094 56.289062 175.121094 87.800781 L 175.121094 136.40625 L 203.597656 136.40625 L 203.597656 87.800781 C 203.597656 72.996094 210.8125 66.726562 221.441406 66.726562 C 232.066406 66.726562 239.285156 72.996094 239.285156 87.800781 L 239.285156 136.40625 L 267.761719 136.40625 L 267.761719 87.800781 C 267.777344 56.09375 249.164062 40.152344 221.449219 40.152344 " clip-rule="nonzero"/></clipPath><clipPath id="6e6406d886"><path d="M 277.644531 42.617188 L 314.109375 42.617188 L 314.109375 71.097656 L 277.644531 71.097656 Z M 285.625 71.097656 L 314.109375 71.097656 L 314.109375 136.410156 L 285.625 136.410156 Z M 285.625 71.097656 " clip-rule="nonzero"/></clipPath><clipPath id="84d0a33f25"><path d="M 285.625 3.121094 L 314.105469 3.121094 L 314.105469 31.59375 L 285.625 31.59375 Z M 285.625 3.121094 " clip-rule="nonzero"/></clipPath><clipPath id="76d0c06dab"><path d="M 330.523438 42.617188 L 474.160156 42.617188 L 474.160156 138.878906 L 330.523438 138.878906 Z M 330.523438 42.617188 " clip-rule="nonzero"/></clipPath><clipPath id="e59b5d7b42"><path d="M 445.574219 95.398438 C 445.574219 107.933594 439.503906 112.300781 430.953125 112.300781 C 422.601562 112.300781 416.519531 107.933594 416.519531 95.398438 L 416.519531 42.617188 L 388.050781 42.617188 L 388.050781 95.398438 C 388.050781 107.933594 381.972656 112.300781 373.617188 112.300781 C 365.078125 112.300781 359 107.933594 359 95.398438 L 359 42.617188 L 330.523438 42.617188 L 330.523438 95.398438 C 330.523438 125.589844 347.988281 138.878906 370.769531 138.878906 C 384.054688 138.878906 395.261719 133.746094 402.285156 123.878906 C 409.304688 133.746094 420.320312 138.878906 433.800781 138.878906 C 456.582031 138.878906 474.054688 125.589844 474.054688 95.398438 L 474.054688 42.617188 L 445.574219 42.617188 Z M 445.574219 95.398438 " clip-rule="nonzero"/></clipPath><clipPath id="a72e468931"><path d="M 484.882812 42.617188 L 521.273438 42.617188 L 521.273438 71.097656 L 484.882812 71.097656 Z M 492.796875 71.097656 L 521.273438 71.097656 L 521.273438 136.410156 L 492.796875 136.410156 Z M 492.796875 71.097656 " clip-rule="nonzero"/></clipPath><clipPath id="00dcace872"><path d="M 492.792969 3.121094 L 521.269531 3.121094 L 521.269531 31.59375 L 492.792969 31.59375 Z M 492.792969 3.121094 " clip-rule="nonzero"/></clipPath><clipPath id="cf4d911321"><path d="M 533.007812 40.152344 L 613.4375 40.152344 L 613.4375 139 L 533.007812 139 Z M 533.007812 40.152344 " clip-rule="nonzero"/></clipPath><clipPath id="d0be6afae5"><path d="M 578.953125 78.878906 C 570.21875 77.550781 563.382812 76.796875 563.382812 71.097656 C 563.382812 67.296875 566.234375 63.691406 573.257812 63.691406 C 578.953125 63.691406 582.746094 66.160156 583.507812 70.527344 L 611.226562 70.527344 C 610.664062 53.625 596.226562 40.152344 572.882812 40.152344 C 549.53125 40.152344 534.523438 53.4375 534.523438 72.425781 C 534.523438 95.019531 555.792969 98.25 568.699219 100.148438 C 577.433594 101.480469 584.269531 102.050781 584.269531 108.316406 C 584.269531 112.300781 581.421875 115.34375 572.6875 115.34375 C 564.902344 115.34375 561.296875 112.875 561.105469 107.941406 L 533.007812 107.941406 C 533.386719 125.980469 548.957031 138.894531 573.070312 138.894531 C 597.179688 138.894531 613.128906 125.980469 613.128906 106.617188 C 613.128906 84.40625 592.433594 80.792969 578.953125 78.894531 " clip-rule="nonzero"/></clipPath><clipPath id="727873ce59"><path d="M 620.179688 40.019531 L 720.921875 40.019531 L 720.921875 139 L 620.179688 139 Z M 620.179688 40.019531 " clip-rule="nonzero"/></clipPath><clipPath id="c6d598f420"><path d="M 650.539062 79.457031 C 653.386719 69.964844 660.976562 65.589844 670.855469 65.589844 C 680.734375 65.589844 688.328125 69.769531 691.550781 79.457031 Z M 720.789062 89.515625 C 720.789062 61.039062 700.472656 40.152344 670.855469 40.152344 C 641.242188 40.152344 620.347656 61.039062 620.347656 89.515625 C 620.347656 117.992188 641.234375 138.878906 670.847656 138.878906 C 694.203125 138.878906 712.046875 125.964844 718.125 106.601562 L 688.699219 106.601562 C 685.097656 111.730469 679.015625 113.4375 670.847656 113.4375 C 660.597656 113.4375 652.242188 108.503906 649.960938 97.484375 L 720.78125 97.484375 Z M 720.789062 89.515625 " clip-rule="nonzero"/></clipPath><clipPath id="94d7c639f0"><path d="M 718.433594 36.160156 L 725.636719 36.160156 L 725.636719 44.734375 L 718.433594 44.734375 Z M 718.433594 36.160156 " clip-rule="nonzero"/></clipPath><clipPath id="6de9a31393"><path d="M 723.011719 44.570312 L 720.753906 44.570312 L 720.753906 38.335938 L 718.457031 38.335938 L 718.457031 36.328125 L 725.277344 36.328125 L 725.277344 38.335938 L 723.003906 38.335938 Z M 723.011719 44.570312 " clip-rule="nonzero"/></clipPath><clipPath id="02fabbce1a"><path d="M 726.105469 36.160156 L 736.660156 36.160156 L 736.660156 44.734375 L 726.105469 44.734375 Z M 726.105469 36.160156 " clip-rule="nonzero"/></clipPath><clipPath id="74072c8e70"><path d="M 734.390625 44.570312 L 734.390625 38.96875 L 734.367188 38.96875 L 732.414062 44.570312 L 730.503906 44.570312 L 728.632812 39.1875 L 728.601562 39.1875 L 728.601562 44.570312 L 726.421875 44.570312 L 726.421875 36.328125 L 729.78125 36.328125 L 731.480469 41.332031 L 731.511719 41.332031 L 733.207031 36.328125 L 736.644531 36.328125 L 736.644531 44.570312 Z M 734.390625 44.570312 " clip-rule="nonzero"/></clipPath></defs><g clip-path="url(#a9674e4ee8)"><path fill="#ffffff" d="M 17.578125 59.351562 L 34.28125 59.351562 L 34.28125 76.054688 L 17.578125 76.054688 Z M 17.578125 59.351562 " fill-opacity="1" fill-rule="nonzero"/></g><g clip-path="url(#6e8aab7704)"><path fill="#00f0ff" d="M 18.660156 109.460938 L 35.363281 109.460938 L 35.363281 126.164062 L 18.660156 126.164062 Z M 18.660156 109.460938 " fill-opacity="1" fill-rule="nonzero"/></g><g clip-path="url(#b7a6cac382)"><g clip-path="url(#100fe10514)"><path fill="#ffffff" d="M 30.683594 22.347656 L 163.953125 22.347656 L 163.953125 142.476562 L 30.683594 142.476562 Z M 30.683594 22.347656 " fill-opacity="1" fill-rule="nonzero"/></g></g><g clip-path="url(#376f1e3617)"><path fill="#00f0ff" d="M 30.683594 22.347656 L 163.953125 22.347656 L 163.953125 142.476562 L 30.683594 142.476562 Z M 30.683594 22.347656 " fill-opacity="1" fill-rule="nonzero"/></g><g clip-path="url(#45976f6374)"><path fill="#00f0ff" d="M 30.683594 22.347656 L 163.953125 22.347656 L 163.953125 142.476562 L 30.683594 142.476562 Z M 30.683594 22.347656 " fill-opacity="1" fill-rule="nonzero"/></g><g clip-path="url(#30a53f6264)"><path fill="#00f0ff" d="M 30.683594 22.347656 L 163.953125 22.347656 L 163.953125 142.476562 L 30.683594 142.476562 Z M 30.683594 22.347656 " fill-opacity="1" fill-rule="nonzero"/></g><g clip-path="url(#c4bb2d359c)"><path fill="#01a3f8" d="M 30.683594 22.347656 L 163.953125 22.347656 L 163.953125 142.476562 L 30.683594 142.476562 Z M 30.683594 22.347656 " fill-opacity="1" fill-rule="nonzero"/></g><g clip-path="url(#8f51f71b11)"><path fill="#00f0ff" d="M 30.683594 22.347656 L 163.953125 22.347656 L 163.953125 142.476562 L 30.683594 142.476562 Z M 30.683594 22.347656 " fill-opacity="1" fill-rule="nonzero"/></g><g clip-path="url(#648600f174)"><path fill="#00f0ff" d="M 30.683594 22.347656 L 163.953125 22.347656 L 163.953125 142.476562 L 30.683594 142.476562 Z M 30.683594 22.347656 " fill-opacity="1" fill-rule="nonzero"/></g><g clip-path="url(#ea0dc390d9)"><path fill="#01a3f8" d="M 30.683594 22.347656 L 163.953125 22.347656 L 163.953125 142.476562 L 30.683594 142.476562 Z M 30.683594 22.347656 " fill-opacity="1" fill-rule="nonzero"/></g><g clip-path="url(#26db7140ec)"><path fill="#ffffff" d="M 30.683594 22.347656 L 163.953125 22.347656 L 163.953125 142.476562 L 30.683594 142.476562 Z M 30.683594 22.347656 " fill-opacity="1" fill-rule="nonzero"/></g><g clip-path="url(#efe4f75af9)"><path fill="#00f0ff" d="M 30.683594 22.347656 L 163.953125 22.347656 L 163.953125 142.476562 L 30.683594 142.476562 Z M 30.683594 22.347656 " fill-opacity="1" fill-rule="nonzero"/></g><g clip-path="url(#664ac59d7c)"><path fill="#ffffff" d="M 30.683594 22.347656 L 163.953125 22.347656 L 163.953125 142.476562 L 30.683594 142.476562 Z M 30.683594 22.347656 " fill-opacity="1" fill-rule="nonzero"/></g><g clip-path="url(#af508ba5b7)"><g clip-path="url(#9bbc51adac)"><path fill="#00f0ff" d="M 30.683594 22.347656 L 163.953125 22.347656 L 163.953125 142.476562 L 30.683594 142.476562 Z M 30.683594 22.347656 " fill-opacity="1" fill-rule="nonzero"/></g></g><g clip-path="url(#e27fe8fc08)"><path fill="#ffffff" d="M 30.683594 22.347656 L 163.953125 22.347656 L 163.953125 142.476562 L 30.683594 142.476562 Z M 30.683594 22.347656 " fill-opacity="1" fill-rule="nonzero"/></g><g clip-path="url(#25483c3414)"><g clip-path="url(#e83900746e)"><path fill="#ffffff" d="M 175.121094 40.152344 L 267.773438 40.152344 L 267.773438 136.421875 L 175.121094 136.421875 Z M 175.121094 40.152344 " fill-opacity="1" fill-rule="nonzero"/></g></g><g clip-path="url(#6e6406d886)"><path fill="#ffffff" d="M 277.644531 42.617188 L 314.105469 42.617188 L 314.105469 136.476562 L 277.644531 136.476562 Z M 277.644531 42.617188 " fill-opacity="1" fill-rule="nonzero"/></g><g clip-path="url(#84d0a33f25)"><path fill="#ffffff" d="M 285.625 3.121094 L 314.105469 3.121094 L 314.105469 31.597656 L 285.625 31.597656 Z M 285.625 3.121094 " fill-opacity="1" fill-rule="nonzero"/></g><g clip-path="url(#76d0c06dab)"><g clip-path="url(#e59b5d7b42)"><path fill="#ffffff" d="M 330.523438 42.617188 L 474.160156 42.617188 L 474.160156 138.878906 L 330.523438 138.878906 Z M 330.523438 42.617188 " fill-opacity="1" fill-rule="nonzero"/></g></g><g clip-path="url(#a72e468931)"><path fill="#ffffff" d="M 484.882812 42.617188 L 521.273438 42.617188 L 521.273438 136.4375 L 484.882812 136.4375 Z M 484.882812 42.617188 " fill-opacity="1" fill-rule="nonzero"/></g><g clip-path="url(#00dcace872)"><path fill="#ffffff" d="M 492.792969 3.121094 L 521.273438 3.121094 L 521.273438 31.597656 L 492.792969 31.597656 Z M 492.792969 3.121094 " fill-opacity="1" fill-rule="nonzero"/></g><g clip-path="url(#cf4d911321)"><g clip-path="url(#d0be6afae5)"><path fill="#ffffff" d="M 533.007812 40.152344 L 613.128906 40.152344 L 613.128906 138.734375 L 533.007812 138.734375 Z M 533.007812 40.152344 " fill-opacity="1" fill-rule="nonzero"/></g></g><g clip-path="url(#727873ce59)"><g clip-path="url(#c6d598f420)"><path fill="#ffffff" d="M 616.75 32.730469 L 740.210938 32.730469 L 740.210938 142.476562 L 616.75 142.476562 Z M 616.75 32.730469 " fill-opacity="1" fill-rule="nonzero"/></g></g><g clip-path="url(#94d7c639f0)"><g clip-path="url(#6de9a31393)"><path fill="#ffffff" d="M 616.75 32.730469 L 740.210938 32.730469 L 740.210938 142.476562 L 616.75 142.476562 Z M 616.75 32.730469 " fill-opacity="1" fill-rule="nonzero"/></g></g><g clip-path="url(#02fabbce1a)"><g clip-path="url(#74072c8e70)"><path fill="#ffffff" d="M 616.75 32.730469 L 740.210938 32.730469 L 740.210938 142.476562 L 616.75 142.476562 Z M 616.75 32.730469 " fill-opacity="1" fill-rule="nonzero"/></g></g></svg>