<svg xmlns="http://www.w3.org/2000/svg" xmlns:xlink="http://www.w3.org/1999/xlink" width="1000" zoomAndPan="magnify" viewBox="0 0 750 142.499996" height="190" preserveAspectRatio="xMidYMid meet" version="1.0"><defs><clipPath id="771e76fe74"><path d="M 17.507812 59.34375 L 34.21875 59.34375 L 34.21875 76.054688 L 17.507812 76.054688 Z M 17.507812 59.34375 " clip-rule="nonzero"/></clipPath><clipPath id="591f4cc0f5"><path d="M 18.59375 109.46875 L 35.296875 109.46875 L 35.296875 126.171875 L 18.59375 126.171875 Z M 18.59375 109.46875 " clip-rule="nonzero"/></clipPath><clipPath id="027a0da7a7"><path d="M 67.234375 42.515625 L 96.339844 42.515625 L 96.339844 59.414062 L 67.234375 59.414062 Z M 67.234375 42.515625 " clip-rule="nonzero"/></clipPath><clipPath id="fea8193937"><path d="M 67.601562 42.605469 L 96.09375 42.644531 L 84.347656 42.644531 L 84.347656 59.34375 L 67.636719 59.34375 " clip-rule="nonzero"/></clipPath><clipPath id="c14b5014ca"><path d="M 67.234375 76 L 84.601562 76 L 84.601562 93 L 67.234375 93 Z M 67.234375 76 " clip-rule="nonzero"/></clipPath><clipPath id="8312ef8324"><path d="M 67.636719 76.054688 L 84.347656 76.0625 L 84.347656 92.765625 L 67.613281 92.757812 C 67.601562 92.257812 67.601562 91.746094 67.601562 91.234375 " clip-rule="nonzero"/></clipPath><clipPath id="d7e892cfd7"><path d="M 131.546875 42.515625 L 132 42.515625 L 132 59.414062 L 131.546875 59.414062 Z M 131.546875 42.515625 " clip-rule="nonzero"/></clipPath><clipPath id="3277e24021"><path d="M 131.808594 59.351562 L 131.800781 59.351562 L 131.808594 42.644531 Z M 131.808594 59.351562 " clip-rule="nonzero"/></clipPath><clipPath id="ef7a21b83e"><path d="M 131.546875 76 L 148.445312 76 L 148.445312 93 L 131.546875 93 Z M 131.546875 76 " clip-rule="nonzero"/></clipPath><clipPath id="cf98010cf7"><path d="M 148.371094 76.054688 L 148.371094 92.765625 L 131.769531 92.757812 C 131.792969 92.265625 131.800781 91.746094 131.800781 91.234375 L 131.800781 76.054688 Z M 148.371094 76.054688 " clip-rule="nonzero"/></clipPath><clipPath id="59da87fdd1"><path d="M 34.222656 25.929688 L 50.925781 25.929688 L 50.925781 42.644531 L 34.222656 42.644531 Z M 34.222656 25.929688 " clip-rule="nonzero"/></clipPath><clipPath id="47eb1b605b"><path d="M 67.636719 25.929688 L 84.347656 25.929688 L 84.347656 42.644531 L 67.636719 42.644531 Z M 67.636719 25.929688 " clip-rule="nonzero"/></clipPath><clipPath id="a45fdd6d09"><path d="M 67.234375 59 L 101.5 59 L 101.5 76.3125 L 67.234375 76.3125 Z M 67.234375 59 " clip-rule="nonzero"/></clipPath><clipPath id="5d6fc738c4"><path d="M 101.0625 59.351562 L 101.054688 76.054688 L 67.636719 76.054688 L 67.636719 59.34375 L 84.347656 59.351562 Z M 101.0625 59.351562 " clip-rule="nonzero"/></clipPath><clipPath id="ab16674827"><path d="M 67.636719 76.054688 L 84.347656 76.054688 L 84.347656 92.765625 L 67.636719 92.765625 Z M 67.636719 76.054688 " clip-rule="nonzero"/></clipPath><clipPath id="2476809874"><path d="M 131.664062 76.054688 L 148.371094 76.054688 L 148.371094 92.765625 L 131.664062 92.765625 Z M 131.664062 76.054688 " clip-rule="nonzero"/></clipPath><clipPath id="9169d611d7"><path d="M 84.277344 76 L 101.5 76 L 101.5 76.3125 L 84.277344 76.3125 Z M 84.277344 76 " clip-rule="nonzero"/></clipPath><clipPath id="c55a19a757"><path d="M 101.054688 76.0625 L 84.347656 76.054688 L 101.054688 76.054688 Z M 101.054688 76.0625 " clip-rule="nonzero"/></clipPath><clipPath id="7d8a8db3c9"><path d="M 84.347656 25.929688 L 101.0625 25.929688 L 101.0625 42.644531 L 84.347656 42.644531 Z M 84.347656 25.929688 " clip-rule="nonzero"/></clipPath><clipPath id="2f37624eed"><path d="M 84.277344 76 L 101.5 76 L 101.5 76.3125 L 84.277344 76.3125 Z M 84.277344 76 " clip-rule="nonzero"/></clipPath><clipPath id="3dab3355d8"><path d="M 101.054688 76.0625 L 84.347656 76.054688 L 101.054688 76.054688 Z M 101.054688 76.0625 " clip-rule="nonzero"/></clipPath><clipPath id="a77a062c5c"><path d="M 50.933594 42.644531 L 67.636719 42.644531 L 67.636719 59.34375 L 50.933594 59.34375 Z M 50.933594 42.644531 " clip-rule="nonzero"/></clipPath><clipPath id="d3e9e19d8a"><path d="M 123.300781 42.644531 L 131.808594 42.644531 L 131.808594 54.035156 L 123.300781 54.035156 Z M 123.300781 42.644531 " clip-rule="nonzero"/></clipPath><clipPath id="0fdd2e0cc4"><path d="M 115.105469 42.644531 L 131.808594 42.644531 L 131.808594 59.351562 L 115.105469 59.351562 Z M 115.105469 42.644531 " clip-rule="nonzero"/></clipPath><clipPath id="1d4f38e145"><path d="M 52 42.515625 L 160.648438 42.515625 L 160.648438 139 L 52 139 Z M 52 42.515625 " clip-rule="nonzero"/></clipPath><clipPath id="244da13cce"><path d="M 160.292969 42.605469 L 160.292969 91.234375 C 160.292969 122.757812 141.675781 138.902344 113.941406 138.902344 C 92.167969 138.902344 76.023438 129.054688 70.082031 109.472656 L 52.011719 109.472656 L 52.011719 92.765625 L 84.347656 92.765625 L 84.347656 76.0625 L 101.054688 76.0625 L 101.054688 92.765625 L 96.125 92.765625 C 96.605469 106.472656 103.6875 112.316406 113.941406 112.316406 C 124.207031 112.316406 131.285156 106.472656 131.769531 92.765625 L 148.371094 92.765625 L 148.371094 76.054688 L 131.800781 76.054688 L 131.808594 54.042969 L 140.015625 54.042969 L 140.015625 42.605469 Z M 160.292969 42.605469 " clip-rule="nonzero"/></clipPath><clipPath id="db72901775"><path d="M 175.105469 40.136719 L 267.789062 40.136719 L 267.789062 136.4375 L 175.105469 136.4375 Z M 175.105469 40.136719 " clip-rule="nonzero"/></clipPath><clipPath id="606f16f307"><path d="M 221.449219 40.136719 C 193.714844 40.136719 175.105469 56.28125 175.105469 87.804688 L 175.105469 136.421875 L 203.59375 136.421875 L 203.59375 87.804688 C 203.59375 72.992188 210.808594 66.722656 221.441406 66.722656 C 232.074219 66.722656 239.292969 72.992188 239.292969 87.804688 L 239.292969 136.421875 L 267.777344 136.421875 L 267.777344 87.804688 C 267.792969 56.089844 249.171875 40.136719 221.449219 40.136719 " clip-rule="nonzero"/></clipPath><clipPath id="4925bc7635"><path d="M 277.664062 42.605469 L 314.140625 42.605469 L 314.140625 71.09375 L 277.664062 71.09375 Z M 285.648438 71.09375 L 314.140625 71.09375 L 314.140625 136.425781 L 285.648438 136.425781 Z M 285.648438 71.09375 " clip-rule="nonzero"/></clipPath><clipPath id="d15169e03a"><path d="M 285.648438 3.097656 L 314.136719 3.097656 L 314.136719 31.582031 L 285.648438 31.582031 Z M 285.648438 3.097656 " clip-rule="nonzero"/></clipPath><clipPath id="c4c5fd8652"><path d="M 330.558594 42.605469 L 474.246094 42.605469 L 474.246094 138.894531 L 330.558594 138.894531 Z M 330.558594 42.605469 " clip-rule="nonzero"/></clipPath><clipPath id="2f91bf347b"><path d="M 445.648438 95.402344 C 445.648438 107.941406 439.578125 112.3125 431.027344 112.3125 C 422.671875 112.3125 416.585938 107.941406 416.585938 95.402344 L 416.585938 42.605469 L 388.109375 42.605469 L 388.109375 95.402344 C 388.109375 107.941406 382.027344 112.3125 373.667969 112.3125 C 365.125 112.3125 359.046875 107.941406 359.046875 95.402344 L 359.046875 42.605469 L 330.558594 42.605469 L 330.558594 95.402344 C 330.558594 125.601562 348.03125 138.894531 370.820312 138.894531 C 384.113281 138.894531 395.320312 133.761719 402.347656 123.890625 C 409.371094 133.761719 420.386719 138.894531 433.875 138.894531 C 456.664062 138.894531 474.140625 125.601562 474.140625 95.402344 L 474.140625 42.605469 L 445.648438 42.605469 Z M 445.648438 95.402344 " clip-rule="nonzero"/></clipPath><clipPath id="6b556ecddf"><path d="M 484.972656 42.605469 L 521.375 42.605469 L 521.375 71.09375 L 484.972656 71.09375 Z M 492.890625 71.09375 L 521.375 71.09375 L 521.375 136.425781 L 492.890625 136.425781 Z M 492.890625 71.09375 " clip-rule="nonzero"/></clipPath><clipPath id="0e8e5292ea"><path d="M 492.886719 3.097656 L 521.371094 3.097656 L 521.371094 31.582031 L 492.886719 31.582031 Z M 492.886719 3.097656 " clip-rule="nonzero"/></clipPath><clipPath id="dc756ffee7"><path d="M 533.113281 40.136719 L 613.574219 40.136719 L 613.574219 139 L 533.113281 139 Z M 533.113281 40.136719 " clip-rule="nonzero"/></clipPath><clipPath id="6018afa7e6"><path d="M 579.074219 78.878906 C 570.335938 77.546875 563.5 76.792969 563.5 71.09375 C 563.5 67.292969 566.351562 63.6875 573.375 63.6875 C 579.074219 63.6875 582.867188 66.15625 583.632812 70.523438 L 611.359375 70.523438 C 610.792969 53.617188 596.355469 40.136719 573 40.136719 C 549.644531 40.136719 534.628906 53.429688 534.628906 72.421875 C 534.628906 95.023438 555.90625 98.253906 568.816406 100.15625 C 577.554688 101.484375 584.394531 102.054688 584.394531 108.324219 C 584.394531 112.3125 581.542969 115.355469 572.804688 115.355469 C 565.019531 115.355469 561.414062 112.882812 561.21875 107.949219 L 533.113281 107.949219 C 533.496094 125.992188 549.070312 138.910156 573.1875 138.910156 C 597.308594 138.910156 613.261719 125.992188 613.261719 106.625 C 613.261719 84.40625 592.5625 80.792969 579.074219 78.894531 " clip-rule="nonzero"/></clipPath><clipPath id="2e4a8a2639"><path d="M 620.316406 40.007812 L 721 40.007812 L 721 139 L 620.316406 139 Z M 620.316406 40.007812 " clip-rule="nonzero"/></clipPath><clipPath id="048356513b"><path d="M 650.683594 79.457031 C 653.53125 69.960938 661.128906 65.585938 671.007812 65.585938 C 680.890625 65.585938 688.484375 69.765625 691.707031 79.457031 Z M 720.960938 89.515625 C 720.960938 61.03125 700.632812 40.136719 671.007812 40.136719 C 641.382812 40.136719 620.484375 61.03125 620.484375 89.515625 C 620.484375 118 641.375 138.894531 671 138.894531 C 694.363281 138.894531 712.214844 125.976562 718.292969 106.609375 L 688.859375 106.609375 C 685.253906 111.742188 679.167969 113.445312 671 113.445312 C 660.746094 113.445312 652.390625 108.511719 650.105469 97.488281 L 720.953125 97.488281 Z M 720.960938 89.515625 " clip-rule="nonzero"/></clipPath><clipPath id="1c8826fdab"><path d="M 718.601562 36.148438 L 725.808594 36.148438 L 725.808594 44.722656 L 718.601562 44.722656 Z M 718.601562 36.148438 " clip-rule="nonzero"/></clipPath><clipPath id="8decf7ef47"><path d="M 723.183594 44.558594 L 720.921875 44.558594 L 720.921875 38.324219 L 718.628906 38.324219 L 718.628906 36.316406 L 725.449219 36.316406 L 725.449219 38.324219 L 723.175781 38.324219 Z M 723.183594 44.558594 " clip-rule="nonzero"/></clipPath><clipPath id="a73a13de9a"><path d="M 726.277344 36.148438 L 736.835938 36.148438 L 736.835938 44.722656 L 726.277344 44.722656 Z M 726.277344 36.148438 " clip-rule="nonzero"/></clipPath><clipPath id="5abafd2927"><path d="M 734.5625 44.558594 L 734.5625 38.957031 L 734.539062 38.957031 L 732.585938 44.558594 L 730.675781 44.558594 L 728.804688 39.175781 L 728.773438 39.175781 L 728.773438 44.558594 L 726.59375 44.558594 L 726.59375 36.316406 L 729.957031 36.316406 L 731.652344 41.320312 L 731.683594 41.320312 L 733.382812 36.316406 L 736.820312 36.316406 L 736.820312 44.558594 Z M 734.5625 44.558594 " clip-rule="nonzero"/></clipPath></defs><g clip-path="url(#771e76fe74)"><path fill="#140556" d="M 17.507812 59.34375 L 34.222656 59.34375 L 34.222656 76.050781 L 17.507812 76.050781 Z M 17.507812 59.34375 " fill-opacity="1" fill-rule="nonzero"/></g><g clip-path="url(#591f4cc0f5)"><path fill="#00f0ff" d="M 18.59375 109.46875 L 35.300781 109.46875 L 35.300781 126.175781 L 18.59375 126.175781 Z M 18.59375 109.46875 " fill-opacity="1" fill-rule="nonzero"/></g><g clip-path="url(#027a0da7a7)"><g clip-path="url(#fea8193937)"><path fill="#140556" d="M 30.621094 22.328125 L 163.933594 22.328125 L 163.933594 142.496094 L 30.621094 142.496094 Z M 30.621094 22.328125 " fill-opacity="1" fill-rule="nonzero"/></g></g><g clip-path="url(#c14b5014ca)"><g clip-path="url(#8312ef8324)"><path fill="#140556" d="M 30.621094 22.328125 L 163.933594 22.328125 L 163.933594 142.496094 L 30.621094 142.496094 Z M 30.621094 22.328125 " fill-opacity="1" fill-rule="nonzero"/></g></g><g clip-path="url(#d7e892cfd7)"><g clip-path="url(#3277e24021)"><path fill="#140556" d="M 30.621094 22.328125 L 163.933594 22.328125 L 163.933594 142.496094 L 30.621094 142.496094 Z M 30.621094 22.328125 " fill-opacity="1" fill-rule="nonzero"/></g></g><g clip-path="url(#ef7a21b83e)"><g clip-path="url(#cf98010cf7)"><path fill="#140556" d="M 30.621094 22.328125 L 163.933594 22.328125 L 163.933594 142.496094 L 30.621094 142.496094 Z M 30.621094 22.328125 " fill-opacity="1" fill-rule="nonzero"/></g></g><g clip-path="url(#59da87fdd1)"><path fill="#00f0ff" d="M 30.621094 22.328125 L 163.933594 22.328125 L 163.933594 142.496094 L 30.621094 142.496094 Z M 30.621094 22.328125 " fill-opacity="1" fill-rule="nonzero"/></g><g clip-path="url(#47eb1b605b)"><path fill="#00f0ff" d="M 30.621094 22.328125 L 163.933594 22.328125 L 163.933594 142.496094 L 30.621094 142.496094 Z M 30.621094 22.328125 " fill-opacity="1" fill-rule="nonzero"/></g><g clip-path="url(#a45fdd6d09)"><g clip-path="url(#5d6fc738c4)"><path fill="#00f0ff" d="M 30.621094 22.328125 L 163.933594 22.328125 L 163.933594 142.496094 L 30.621094 142.496094 Z M 30.621094 22.328125 " fill-opacity="1" fill-rule="nonzero"/></g></g><g clip-path="url(#ab16674827)"><path fill="#01a3f8" d="M 30.621094 22.328125 L 163.933594 22.328125 L 163.933594 142.496094 L 30.621094 142.496094 Z M 30.621094 22.328125 " fill-opacity="1" fill-rule="nonzero"/></g><g clip-path="url(#2476809874)"><path fill="#00f0ff" d="M 30.621094 22.328125 L 163.933594 22.328125 L 163.933594 142.496094 L 30.621094 142.496094 Z M 30.621094 22.328125 " fill-opacity="1" fill-rule="nonzero"/></g><g clip-path="url(#9169d611d7)"><g clip-path="url(#c55a19a757)"><path fill="#00f0ff" d="M 30.621094 22.328125 L 163.933594 22.328125 L 163.933594 142.496094 L 30.621094 142.496094 Z M 30.621094 22.328125 " fill-opacity="1" fill-rule="nonzero"/></g></g><g clip-path="url(#7d8a8db3c9)"><path fill="#01a3f8" d="M 30.621094 22.328125 L 163.933594 22.328125 L 163.933594 142.496094 L 30.621094 142.496094 Z M 30.621094 22.328125 " fill-opacity="1" fill-rule="nonzero"/></g><g clip-path="url(#2f37624eed)"><g clip-path="url(#3dab3355d8)"><path fill="#140556" d="M 30.621094 22.328125 L 163.933594 22.328125 L 163.933594 142.496094 L 30.621094 142.496094 Z M 30.621094 22.328125 " fill-opacity="1" fill-rule="nonzero"/></g></g><g clip-path="url(#a77a062c5c)"><path fill="#00f0ff" d="M 30.621094 22.328125 L 163.933594 22.328125 L 163.933594 142.496094 L 30.621094 142.496094 Z M 30.621094 22.328125 " fill-opacity="1" fill-rule="nonzero"/></g><g clip-path="url(#d3e9e19d8a)"><path fill="#f4e9dc" d="M 30.621094 22.328125 L 163.933594 22.328125 L 163.933594 142.496094 L 30.621094 142.496094 Z M 30.621094 22.328125 " fill-opacity="1" fill-rule="nonzero"/></g><g clip-path="url(#0fdd2e0cc4)"><path fill="#00f0ff" d="M 30.621094 22.328125 L 163.933594 22.328125 L 163.933594 142.496094 L 30.621094 142.496094 Z M 30.621094 22.328125 " fill-opacity="1" fill-rule="nonzero"/></g><g clip-path="url(#1d4f38e145)"><g clip-path="url(#244da13cce)"><path fill="#140556" d="M 30.621094 22.328125 L 163.933594 22.328125 L 163.933594 142.496094 L 30.621094 142.496094 Z M 30.621094 22.328125 " fill-opacity="1" fill-rule="nonzero"/></g></g><g clip-path="url(#db72901775)"><g clip-path="url(#606f16f307)"><path fill="#140556" d="M 175.105469 40.136719 L 267.789062 40.136719 L 267.789062 136.4375 L 175.105469 136.4375 Z M 175.105469 40.136719 " fill-opacity="1" fill-rule="nonzero"/></g></g><g clip-path="url(#4925bc7635)"><path fill="#140556" d="M 277.664062 42.605469 L 314.136719 42.605469 L 314.136719 136.492188 L 277.664062 136.492188 Z M 277.664062 42.605469 " fill-opacity="1" fill-rule="nonzero"/></g><g clip-path="url(#d15169e03a)"><path fill="#140556" d="M 285.648438 3.097656 L 314.136719 3.097656 L 314.136719 31.585938 L 285.648438 31.585938 Z M 285.648438 3.097656 " fill-opacity="1" fill-rule="nonzero"/></g><g clip-path="url(#c4c5fd8652)"><g clip-path="url(#2f91bf347b)"><path fill="#140556" d="M 330.558594 42.605469 L 474.246094 42.605469 L 474.246094 138.894531 L 330.558594 138.894531 Z M 330.558594 42.605469 " fill-opacity="1" fill-rule="nonzero"/></g></g><g clip-path="url(#6b556ecddf)"><path fill="#140556" d="M 484.972656 42.605469 L 521.375 42.605469 L 521.375 136.453125 L 484.972656 136.453125 Z M 484.972656 42.605469 " fill-opacity="1" fill-rule="nonzero"/></g><g clip-path="url(#0e8e5292ea)"><path fill="#140556" d="M 492.886719 3.097656 L 521.375 3.097656 L 521.375 31.585938 L 492.886719 31.585938 Z M 492.886719 3.097656 " fill-opacity="1" fill-rule="nonzero"/></g><g clip-path="url(#dc756ffee7)"><g clip-path="url(#6018afa7e6)"><path fill="#140556" d="M 533.113281 40.136719 L 613.261719 40.136719 L 613.261719 138.753906 L 533.113281 138.753906 Z M 533.113281 40.136719 " fill-opacity="1" fill-rule="nonzero"/></g></g><g clip-path="url(#2e4a8a2639)"><g clip-path="url(#048356513b)"><path fill="#140556" d="M 616.886719 32.714844 L 740.386719 32.714844 L 740.386719 142.492188 L 616.886719 142.492188 Z M 616.886719 32.714844 " fill-opacity="1" fill-rule="nonzero"/></g></g><g clip-path="url(#1c8826fdab)"><g clip-path="url(#8decf7ef47)"><path fill="#140556" d="M 616.886719 32.714844 L 740.386719 32.714844 L 740.386719 142.492188 L 616.886719 142.492188 Z M 616.886719 32.714844 " fill-opacity="1" fill-rule="nonzero"/></g></g><g clip-path="url(#a73a13de9a)"><g clip-path="url(#5abafd2927)"><path fill="#140556" d="M 616.886719 32.714844 L 740.386719 32.714844 L 740.386719 142.492188 L 616.886719 142.492188 Z M 616.886719 32.714844 " fill-opacity="1" fill-rule="nonzero"/></g></g></svg>