<svg xmlns="http://www.w3.org/2000/svg" xmlns:xlink="http://www.w3.org/1999/xlink" width="500" zoomAndPan="magnify" viewBox="0 0 375 374.999991" height="500" preserveAspectRatio="xMidYMid meet" version="1.0"><defs><clipPath id="1316b8379f"><path d="M 77.515625 156.507812 L 100.039062 156.507812 L 100.039062 179.054688 L 77.515625 179.054688 Z M 77.515625 156.507812 " clip-rule="nonzero"/></clipPath><clipPath id="5676ab465d"><path d="M 78.972656 224.144531 L 101.496094 224.144531 L 101.496094 246.6875 L 78.972656 246.6875 Z M 78.972656 224.144531 " clip-rule="nonzero"/></clipPath><clipPath id="2500d4ce42"><path d="M 145.03125 133.886719 L 254 133.886719 L 254 201.730469 L 145.03125 201.730469 Z M 145.03125 133.886719 " clip-rule="nonzero"/></clipPath><clipPath id="417b01bdff"><path d="M 231.59375 179.054688 L 231.59375 199.527344 C 231.59375 200.230469 231.578125 200.925781 231.550781 201.597656 L 253.9375 201.597656 L 253.9375 179.054688 Z M 231.59375 156.511719 L 231.613281 156.511719 L 231.59375 133.964844 Z M 145.09375 201.597656 L 167.621094 201.597656 L 167.621094 179.054688 L 145.09375 179.054688 Z M 145.046875 133.921875 L 145.046875 156.511719 L 145.09375 156.511719 L 145.09375 133.964844 L 183.457031 133.921875 Z M 145.046875 133.921875 " clip-rule="nonzero"/></clipPath><clipPath id="436b73e087"><path d="M 145.09375 133.964844 L 167.621094 133.964844 L 167.621094 156.511719 L 145.09375 156.511719 Z M 145.09375 133.964844 " clip-rule="nonzero"/></clipPath><clipPath id="ed7bf6ffc8"><path d="M 100.039062 111.421875 L 122.5625 111.421875 L 122.5625 133.964844 L 100.039062 133.964844 Z M 100.039062 111.421875 " clip-rule="nonzero"/></clipPath><clipPath id="9b56c603c6"><path d="M 145.09375 111.421875 L 167.621094 111.421875 L 167.621094 133.964844 L 145.09375 133.964844 Z M 145.09375 111.421875 " clip-rule="nonzero"/></clipPath><clipPath id="b4285d9e8b"><path d="M 145.03125 156.472656 L 190.269531 156.472656 L 190.269531 201.730469 L 145.03125 201.730469 Z M 145.03125 156.472656 " clip-rule="nonzero"/></clipPath><clipPath id="5497d60f56"><path d="M 190.152344 156.511719 L 190.152344 179.054688 L 145.09375 179.054688 L 145.0625 201.597656 C 145.054688 200.914062 145.046875 200.222656 145.046875 199.527344 L 145.046875 156.511719 Z M 190.152344 156.511719 " clip-rule="nonzero"/></clipPath><clipPath id="58e4bb1fba"><path d="M 145.09375 179.054688 L 167.621094 179.054688 L 167.621094 201.597656 L 145.09375 201.597656 Z M 145.09375 179.054688 " clip-rule="nonzero"/></clipPath><clipPath id="6f2c8bed9d"><path d="M 231.410156 179.054688 L 253.9375 179.054688 L 253.9375 201.597656 L 231.410156 201.597656 Z M 231.410156 179.054688 " clip-rule="nonzero"/></clipPath><clipPath id="c340bcd2f4"><path d="M 167.621094 111.417969 L 190.148438 111.417969 L 190.148438 133.96875 L 167.621094 133.96875 Z M 167.621094 111.417969 " clip-rule="nonzero"/></clipPath><clipPath id="a8afb4c602"><path d="M 124 133.886719 L 270 133.886719 L 270 263.847656 L 124 263.847656 Z M 124 133.886719 " clip-rule="nonzero"/></clipPath><clipPath id="0ca8aba290"><path d="M 270 133.921875 L 270 199.527344 C 270 242.066406 244.910156 263.847656 207.527344 263.847656 C 178.167969 263.847656 156.386719 250.574219 148.394531 224.144531 L 124.027344 224.144531 L 124.027344 201.597656 L 167.621094 201.597656 L 167.621094 179.054688 L 190.152344 179.054688 L 190.152344 201.597656 L 183.496094 201.597656 C 184.152344 220.105469 193.691406 227.972656 207.527344 227.972656 C 221.359375 227.972656 230.894531 220.105469 231.550781 201.597656 L 253.9375 201.597656 L 253.9375 179.054688 L 231.59375 179.054688 L 231.613281 149.347656 L 242.671875 149.347656 L 242.671875 133.921875 Z M 270 133.921875 " clip-rule="nonzero"/></clipPath><clipPath id="0e7a8c8d59"><path d="M 122.5625 133.964844 L 145.09375 133.964844 L 145.09375 156.511719 L 122.5625 156.511719 Z M 122.5625 133.964844 " clip-rule="nonzero"/></clipPath><clipPath id="22ce2909cb"><path d="M 220.144531 133.96875 L 231.613281 133.96875 L 231.613281 149.347656 L 220.144531 149.347656 Z M 220.144531 133.96875 " clip-rule="nonzero"/></clipPath><clipPath id="8e70f5b87b"><path d="M 209.085938 133.964844 L 231.613281 133.964844 L 231.613281 156.511719 L 209.085938 156.511719 Z M 209.085938 133.964844 " clip-rule="nonzero"/></clipPath><clipPath id="538d49911f"><path d="M 279.480469 118.683594 L 286.105469 118.683594 L 286.105469 120.636719 L 279.480469 120.636719 Z M 281.703125 120.636719 L 283.902344 120.636719 L 283.902344 126.691406 L 281.703125 126.691406 Z M 281.703125 120.636719 " clip-rule="nonzero"/></clipPath><clipPath id="d60c643642"><path d="M 287.207031 118.664062 L 297.160156 118.664062 L 297.160156 126.71875 L 287.207031 126.71875 Z M 287.207031 118.664062 " clip-rule="nonzero"/></clipPath><clipPath id="251a4b8002"><path d="M 293.8125 118.683594 L 292.164062 123.546875 L 292.136719 123.546875 L 290.484375 118.683594 L 287.214844 118.683594 L 287.214844 126.691406 L 289.339844 126.691406 L 289.339844 121.457031 L 289.363281 121.457031 L 291.179688 126.691406 L 293.039062 126.691406 L 294.929688 121.25 L 294.953125 121.25 L 294.953125 126.691406 L 297.144531 126.691406 L 297.144531 118.683594 Z M 293.8125 118.683594 " clip-rule="nonzero"/></clipPath><clipPath id="e14fd9e9d8"><path d="M 279.480469 118.6875 L 286.105469 118.6875 L 286.105469 120.640625 L 279.480469 120.640625 Z M 281.707031 120.640625 L 283.898438 120.640625 L 283.898438 126.703125 L 281.707031 126.703125 Z M 281.707031 120.640625 " clip-rule="nonzero"/></clipPath><clipPath id="93fc2e94f3"><path d="M 287.21875 118.664062 L 297.160156 118.664062 L 297.160156 126.71875 L 287.21875 126.71875 Z M 287.21875 118.664062 " clip-rule="nonzero"/></clipPath><clipPath id="c23e7cc820"><path d="M 293.8125 118.6875 L 292.160156 123.546875 L 292.136719 123.546875 L 290.488281 118.6875 L 287.21875 118.6875 L 287.21875 126.703125 L 289.339844 126.703125 L 289.339844 121.460938 L 289.371094 121.460938 L 291.183594 126.695312 L 293.042969 126.695312 L 294.933594 121.253906 L 294.957031 121.253906 L 294.957031 126.703125 L 297.148438 126.703125 L 297.148438 118.6875 Z M 293.8125 118.6875 " clip-rule="nonzero"/></clipPath></defs><g clip-path="url(#1316b8379f)"><path fill="#140556" d="M 77.515625 156.507812 L 100.039062 156.507812 L 100.039062 179.054688 L 77.515625 179.054688 Z M 77.515625 156.507812 " fill-opacity="1" fill-rule="nonzero"/></g><g clip-path="url(#5676ab465d)"><path fill="#00f0ff" d="M 78.972656 224.144531 L 101.5 224.144531 L 101.5 246.6875 L 78.972656 246.6875 Z M 78.972656 224.144531 " fill-opacity="1" fill-rule="nonzero"/></g><g clip-path="url(#2500d4ce42)"><g clip-path="url(#417b01bdff)"><path fill="#140556" d="M 97.835938 109.214844 L 272.15625 109.214844 L 272.15625 266.050781 L 97.835938 266.050781 Z M 97.835938 109.214844 " fill-opacity="1" fill-rule="nonzero"/></g></g><g clip-path="url(#436b73e087)"><path fill="#140556" d="M 97.835938 109.214844 L 272.15625 109.214844 L 272.15625 266.050781 L 97.835938 266.050781 Z M 97.835938 109.214844 " fill-opacity="1" fill-rule="nonzero"/></g><g clip-path="url(#ed7bf6ffc8)"><path fill="#00f0ff" d="M 97.835938 109.214844 L 272.15625 109.214844 L 272.15625 266.050781 L 97.835938 266.050781 Z M 97.835938 109.214844 " fill-opacity="1" fill-rule="nonzero"/></g><g clip-path="url(#9b56c603c6)"><path fill="#00f0ff" d="M 97.835938 109.214844 L 272.15625 109.214844 L 272.15625 266.050781 L 97.835938 266.050781 Z M 97.835938 109.214844 " fill-opacity="1" fill-rule="nonzero"/></g><g clip-path="url(#b4285d9e8b)"><g clip-path="url(#5497d60f56)"><path fill="#00f0ff" d="M 97.835938 109.214844 L 272.15625 109.214844 L 272.15625 266.050781 L 97.835938 266.050781 Z M 97.835938 109.214844 " fill-opacity="1" fill-rule="nonzero"/></g></g><g clip-path="url(#58e4bb1fba)"><path fill="#01a3f8" d="M 97.835938 109.214844 L 272.15625 109.214844 L 272.15625 266.050781 L 97.835938 266.050781 Z M 97.835938 109.214844 " fill-opacity="1" fill-rule="nonzero"/></g><g clip-path="url(#6f2c8bed9d)"><path fill="#00f0ff" d="M 97.835938 109.214844 L 272.15625 109.214844 L 272.15625 266.050781 L 97.835938 266.050781 Z M 97.835938 109.214844 " fill-opacity="1" fill-rule="nonzero"/></g><g clip-path="url(#c340bcd2f4)"><path fill="#01a3f8" d="M 97.835938 109.214844 L 272.15625 109.214844 L 272.15625 266.050781 L 97.835938 266.050781 Z M 97.835938 109.214844 " fill-opacity="1" fill-rule="nonzero"/></g><g clip-path="url(#a8afb4c602)"><g clip-path="url(#0ca8aba290)"><path fill="#140556" d="M 97.835938 109.214844 L 272.15625 109.214844 L 272.15625 266.050781 L 97.835938 266.050781 Z M 97.835938 109.214844 " fill-opacity="1" fill-rule="nonzero"/></g></g><g clip-path="url(#0e7a8c8d59)"><path fill="#00f0ff" d="M 97.835938 109.214844 L 272.15625 109.214844 L 272.15625 266.050781 L 97.835938 266.050781 Z M 97.835938 109.214844 " fill-opacity="1" fill-rule="nonzero"/></g><g clip-path="url(#22ce2909cb)"><path fill="#1450ef" d="M 97.835938 109.214844 L 272.15625 109.214844 L 272.15625 266.050781 L 97.835938 266.050781 Z M 97.835938 109.214844 " fill-opacity="1" fill-rule="nonzero"/></g><g clip-path="url(#8e70f5b87b)"><path fill="#00f0ff" d="M 97.835938 109.214844 L 272.15625 109.214844 L 272.15625 266.050781 L 97.835938 266.050781 Z M 97.835938 109.214844 " fill-opacity="1" fill-rule="nonzero"/></g><g clip-path="url(#538d49911f)"><path fill="#f4e9dc" d="M 277.277344 116.480469 L 299.34375 116.480469 L 299.34375 128.902344 L 277.277344 128.902344 Z M 277.277344 116.480469 " fill-opacity="1" fill-rule="nonzero"/></g><g clip-path="url(#d60c643642)"><g clip-path="url(#251a4b8002)"><path fill="#f4e9dc" d="M 277.277344 116.480469 L 299.34375 116.480469 L 299.34375 128.902344 L 277.277344 128.902344 Z M 277.277344 116.480469 " fill-opacity="1" fill-rule="nonzero"/></g></g><g clip-path="url(#e14fd9e9d8)"><path fill="#140556" d="M 277.277344 116.480469 L 299.34375 116.480469 L 299.34375 128.902344 L 277.277344 128.902344 Z M 277.277344 116.480469 " fill-opacity="1" fill-rule="nonzero"/></g><g clip-path="url(#93fc2e94f3)"><g clip-path="url(#c23e7cc820)"><path fill="#140556" d="M 277.277344 116.480469 L 299.34375 116.480469 L 299.34375 128.902344 L 277.277344 128.902344 Z M 277.277344 116.480469 " fill-opacity="1" fill-rule="nonzero"/></g></g></svg>